<svg width="115" height="46" viewBox="0 0 115 46" fill="none" xmlns="http://www.w3.org/2000/svg">
<rect x="0.5" y="0.5" width="114" height="45" rx="22.5" stroke="#0C0D12"/>
<path d="M40.724 28H34.074V26.894H35.18V20.006H34.074V18.9H37.896V20.006H36.454V26.894H39.618L39.898 24.906L41.004 25.004L40.724 28ZM51.2359 23.45C51.2359 24.738 50.8159 25.844 49.9759 26.768C49.1453 27.6827 48.0299 28.14 46.6299 28.14C45.2206 28.14 44.1099 27.678 43.2979 26.754C42.4859 25.83 42.0799 24.7287 42.0799 23.45C42.0799 22.1433 42.4999 21.0373 43.3399 20.132C44.1799 19.2173 45.2859 18.76 46.6579 18.76C48.0486 18.76 49.1593 19.2173 49.9899 20.132C50.8206 21.0467 51.2359 22.1527 51.2359 23.45ZM49.8639 23.478C49.8639 22.4233 49.5746 21.5647 48.9959 20.902C48.4266 20.23 47.6473 19.894 46.6579 19.894C45.6313 19.894 44.8379 20.2393 44.2779 20.93C43.7273 21.6113 43.4519 22.4467 43.4519 23.436C43.4519 24.4067 43.7226 25.2467 44.2639 25.956C44.8146 26.656 45.6219 27.006 46.6859 27.006C47.7126 27.006 48.4966 26.67 49.0379 25.998C49.5886 25.326 49.8639 24.486 49.8639 23.478ZM61.4088 24.318H60.7788V28H59.7988L59.6448 26.824C59.3834 27.2067 59.0101 27.524 58.5248 27.776C58.0488 28.0187 57.4841 28.14 56.8308 28.14C55.5801 28.14 54.5674 27.692 53.7928 26.796C53.0274 25.9 52.6448 24.7987 52.6448 23.492C52.6448 22.1853 53.0508 21.07 53.8628 20.146C54.6748 19.222 55.7714 18.76 57.1528 18.76C57.8808 18.76 58.5248 18.8627 59.0848 19.068C59.6541 19.2733 60.1021 19.53 60.4288 19.838L60.6808 21.616L59.6308 21.728L59.3648 20.496C59.1128 20.3373 58.8048 20.1973 58.4408 20.076C58.0768 19.9547 57.6521 19.894 57.1668 19.894C56.2241 19.894 55.4588 20.2207 54.8708 20.874C54.2921 21.518 54.0028 22.3813 54.0028 23.464C54.0028 24.556 54.2828 25.4193 54.8428 26.054C55.4028 26.6887 56.1401 27.006 57.0548 27.006C57.8294 27.006 58.4314 26.8007 58.8608 26.39C59.2901 25.97 59.5048 25.4753 59.5048 24.906V24.318H57.4468V23.212H61.4088V24.318ZM69.7006 28H66.2286V26.894H67.3346V20.006H66.2286V18.9H69.7006V20.006H68.6086V26.894H69.7006V28ZM80.6774 20.006H79.5854V28H78.8154L73.6494 21.238H73.5934V26.894H74.9794V28H71.3534V26.894H72.3894V20.006H71.2134V18.9H73.3134L78.3254 25.452H78.3814V20.006H77.0234V18.9H80.6774V20.006Z" fill="#0C0D12"/>
</svg>
